<svg width="16" height="16" viewBox="0 0 16 16" fill="none" xmlns="http://www.w3.org/2000/svg">
<path d="M3.5 2.5H6.5V3.5H3.5V2.5Z" fill="black"/>
<path d="M6.5 3.5H7.5V4.5H6.5V3.5Z" fill="black"/>
<path d="M7.5 4.5H8.5V5.5H7.5V4.5Z" fill="black"/>
<path d="M2.5 3.5H3.5V4.5H2.5V3.5Z" fill="black"/>
<path d="M2.5 7.5H3.5V8.5H2.5V7.5Z" fill="black"/>
<path d="M3.5 8.5H4.5V9.5H3.5V8.5Z" fill="black"/>
<path d="M4.5 9.5H5.5V10.5H4.5V9.5Z" fill="black"/>
<path d="M5.5 10.5H6.5V11.5H5.5V10.5Z" fill="black"/>
<path d="M12.5 7.5H13.5V8.5H12.5V7.5Z" fill="black"/>
<path d="M11.5 8.5H12.5V9.5H11.5V8.5Z" fill="black"/>
<path d="M10.5 9.5H11.5V10.5H10.5V9.5Z" fill="black"/>
<path d="M9.5 10.5H10.5V11.5H9.5V10.5Z" fill="black"/>
<path d="M8.5 11.5H9.5V12.5H8.5V11.5Z" fill="black"/>
<path d="M6.5 11.5H7.5V12.5H6.5V11.5Z" fill="black"/>
<path d="M7.5 12.5H8.5V13.5H7.5V12.5Z" fill="black"/>
<path d="M8.5 3.5H9.5V4.5H8.5V3.5Z" fill="black"/>
<path d="M9.5 2.5H12.5V3.5H9.5V2.5Z" fill="black"/>
<path d="M12.5 3.5H13.5V4.5H12.5V3.5Z" fill="black"/>
<path d="M13.5 4.5H14.5V7.5H13.5V4.5Z" fill="black"/>
<path d="M1.5 4.5H2.5V7.5H1.5V4.5Z" fill="black"/>
</svg>
